<mxfile host="65bd71144e">
    <diagram id="nqmcA5XWm6K9lCXPhAVW" name="Application">
        <mxGraphModel dx="740" dy="436" grid="1" gridSize="10" guides="1" tooltips="1" connect="1" arrows="1" fold="1" page="1" pageScale="1" pageWidth="1100" pageHeight="850" math="0" shadow="0">
            <root>
                <mxCell id="0"/>
                <mxCell id="1" parent="0"/>
                <object label="index&amp;nbsp;&lt;br&gt;" hedietLinkedDataV1_path="../app/index.jsx" hedietLinkedDataV1_start_col_x-num="0" hedietLinkedDataV1_start_line_x-num="5" hedietLinkedDataV1_end_col_x-num="1" hedietLinkedDataV1_end_line_x-num="13" id="2">
                    <mxCell style="whiteSpace=wrap;html=1;aspect=fixed;" vertex="1" parent="1">
                        <mxGeometry x="490" y="80" width="120" height="120" as="geometry"/>
                    </mxCell>
                </object>
            </root>
        </mxGraphModel>
    </diagram>
    <diagram id="GTeDGBnfvtMyaum0nPMb" name="logic">
        <mxGraphModel dx="1295" dy="763" grid="1" gridSize="10" guides="1" tooltips="1" connect="1" arrows="1" fold="1" page="1" pageScale="1" pageWidth="1100" pageHeight="850" math="0" shadow="0">
            <root>
                <mxCell id="0"/>
                <mxCell id="1" parent="0"/>
            </root>
        </mxGraphModel>
    </diagram>
</mxfile>